<?xml version="1.0" encoding="UTF-8" standalone="no"?>
<svg
   xmlns:dc="http://purl.org/dc/elements/1.1/"
   xmlns:cc="http://creativecommons.org/ns#"
   xmlns:rdf="http://www.w3.org/1999/02/22-rdf-syntax-ns#"
   xmlns:svg="http://www.w3.org/2000/svg"
   xmlns="http://www.w3.org/2000/svg"
   xmlns:sodipodi="http://sodipodi.sourceforge.net/DTD/sodipodi-0.dtd"
   xmlns:inkscape="http://www.inkscape.org/namespaces/inkscape"
   width="32"
   height="32"
   viewBox="0 0 8.4666667 8.4666669"
   version="1.1"
   id="svg8"
   inkscape:version="1.0.2 (e86c870879, 2021-01-15)"
   sodipodi:docname="NI_logo_32x32.svg"
   inkscape:export-filename="/home/silvio/Pictures/NI_logo.png"
   inkscape:export-xdpi="300"
   inkscape:export-ydpi="300">
  <defs
     id="defs2" />
  <sodipodi:namedview
     id="base"
     pagecolor="#0e0e0e"
     bordercolor="#666666"
     borderopacity="1.0"
     inkscape:pageopacity="0"
     inkscape:pageshadow="2"
     inkscape:zoom="11.2"
     inkscape:cx="10.857979"
     inkscape:cy="22.58438"
     inkscape:document-units="mm"
     inkscape:current-layer="layer1"
     showgrid="false"
     inkscape:window-width="1920"
     inkscape:window-height="1016"
     inkscape:window-x="0"
     inkscape:window-y="27"
     inkscape:window-maximized="1"
     units="px"
     inkscape:document-rotation="0" />
  <metadata
     id="metadata5">
    <rdf:RDF>
      <cc:Work
         rdf:about="">
        <dc:format>image/svg+xml</dc:format>
        <dc:type
           rdf:resource="http://purl.org/dc/dcmitype/StillImage" />
        <dc:title></dc:title>
      </cc:Work>
    </rdf:RDF>
  </metadata>
  <g
     inkscape:label="Layer 1"
     inkscape:groupmode="layer"
     id="layer1"
     transform="translate(-93.30516,-101.29573)">
    <g
       id="g861"
       transform="matrix(0.2575347,0,0,0.2575347,69.672719,81.494774)">
      <path
         inkscape:connector-curvature="0"
         id="circle825"
         d="m 103.40365,78.369071 a 8.5044641,8.5044641 0 0 0 -8.504369,8.504391 8.5044641,8.5044641 0 0 0 4.335125,7.407299 6.8980655,6.8980655 0 0 0 -4.446746,6.445599 6.8980655,6.8980655 0 0 0 6.89827,6.89777 6.8980655,6.8980655 0 0 0 5.37641,-2.5864 9.4494047,9.4494047 0 0 0 4.42092,1.50636 5.2916663,5.2916663 0 0 0 3.91139,1.73581 5.2916663,5.2916663 0 0 0 5.29167,-5.29166 5.2916663,5.2916663 0 0 0 -0.1726,-1.32499 9.4494047,9.4494047 0 0 0 1.15807,-4.532017 9.4494047,9.4494047 0 0 0 -3.21376,-7.088973 5.9531249,5.9531249 0 0 0 2.15439,-4.576464 5.9531249,5.9531249 0 0 0 -5.95312,-5.953125 5.9531249,5.9531249 0 0 0 -4.55838,2.124418 8.5044641,8.5044641 0 0 0 -6.69727,-3.268018 z"
         style="opacity:1;fill:none;fill-opacity:1;stroke:#ffffff;stroke-width:2.96500015;stroke-linecap:round;stroke-linejoin:round;stroke-miterlimit:4;stroke-dasharray:none;stroke-dashoffset:0;stroke-opacity:1;paint-order:stroke fill markers" />
      <circle
         r="8.5044641"
         cy="86.873528"
         cx="103.40366"
         id="path815"
         style="opacity:1;fill:#648fff;fill-opacity:0.7254902;stroke:#648fff;stroke-width:1.66499996;stroke-linecap:round;stroke-linejoin:round;stroke-miterlimit:4;stroke-dasharray:none;stroke-dashoffset:0;stroke-opacity:1;paint-order:stroke fill markers" />
      <circle
         r="6.8980656"
         cy="100.72617"
         cx="101.6857"
         id="circle819"
         style="opacity:1;fill:#dc267f;fill-opacity:0.7254902;stroke:#dc267f;stroke-width:1.66499996;stroke-linecap:round;stroke-linejoin:round;stroke-miterlimit:4;stroke-dasharray:none;stroke-dashoffset:0;stroke-opacity:1;paint-order:stroke fill markers" />
      <circle
         style="opacity:1;fill:#fe6100;fill-opacity:0.7254902;stroke:#fe6100;stroke-width:1.66499996;stroke-linecap:round;stroke-linejoin:round;stroke-miterlimit:4;stroke-dasharray:none;stroke-dashoffset:0;stroke-opacity:1;paint-order:stroke fill markers"
         id="circle817"
         cx="112.22239"
         cy="97.131462"
         r="9.4494047" />
      <circle
         style="opacity:1;fill:#785ef0;fill-opacity:0.7254902;stroke:#785ef0;stroke-width:1.66500008;stroke-linecap:round;stroke-linejoin:round;stroke-miterlimit:4;stroke-dasharray:none;stroke-dashoffset:0;stroke-opacity:1;paint-order:stroke fill markers"
         id="circle821"
         cx="114.65905"
         cy="85.465622"
         r="5.953125" />
      <circle
         r="5.2916665"
         cy="102.98847"
         cx="115.39492"
         id="circle823"
         style="opacity:1;fill:#ffb000;fill-opacity:0.7254902;stroke:#ffb000;stroke-width:1.66499996;stroke-linecap:round;stroke-linejoin:round;stroke-miterlimit:4;stroke-dasharray:none;stroke-dashoffset:0;stroke-opacity:1;paint-order:stroke fill markers" />
    </g>
  </g>
</svg>
